<svg xmlns="http://www.w3.org/2000/svg" version="1.1" xmlns:xlink="http://www.w3.org/1999/xlink" xmlns:svgjs="http://svgjs.dev/svgjs" width="1000" height="623" viewBox="0 0 1000 623"><g transform="matrix(1,0,0,1,-0.6060606060606233,0.2522267206477409)"><svg viewBox="0 0 396 247" data-background-color="#333366" preserveAspectRatio="xMidYMid meet" height="623" width="1000" xmlns="http://www.w3.org/2000/svg" xmlns:xlink="http://www.w3.org/1999/xlink"><g id="tight-bounds" transform="matrix(1,0,0,1,0.2400000000000091,-0.09999999999999432)"><svg viewBox="0 0 395.52 247.2" height="247.2" width="395.52"><g><svg></svg></g><g><svg viewBox="0 0 395.52 247.2" height="247.2" width="395.52"><g><path xmlns="http://www.w3.org/2000/svg" d="M55.039 247.2l26.403-45.732 2.333 0-25.173 43.601h278.316l-25.173-43.601 2.333 0 26.403 45.732zM197.76 0l26.403 45.732-2.333 0-24.07-41.691-24.07 41.691-2.333 0z" fill="#ffffff" fill-rule="nonzero" stroke="none" stroke-width="1" stroke-linecap="butt" stroke-linejoin="miter" stroke-miterlimit="10" stroke-dasharray="" stroke-dashoffset="0" font-family="none" font-weight="none" font-size="none" text-anchor="none" style="mix-blend-mode: normal" data-fill-palette-color="tertiary"></path></g><g transform="matrix(1,0,0,1,87.95752754406168,67.97999999999999)"><svg viewBox="0 0 219.60494491187663 111.24" height="111.24" width="219.60494491187663"><g><svg viewBox="0 0 219.60494491187663 111.24" height="111.24" width="219.60494491187663"><g transform="matrix(1,0,0,1,88.87173154426736,0)"><svg viewBox="0 0 130.73321336760927 111.24" height="111.24" width="130.73321336760927"><g><svg viewBox="0 0 130.73321336760927 111.24" height="111.24" width="130.73321336760927"><g><svg viewBox="0 0 130.73321336760927 111.24" height="111.24" width="130.73321336760927"><g transform="matrix(1,0,0,1,0,0)"><svg width="130.73321336760927" viewBox="1.7499990463256836 -35 137.15000915527344 112.80000305175781" height="111.24" data-palette-color="#ffffff"><svg></svg><svg></svg><svg></svg><g class="undefined-text-0" data-fill-palette-color="primary" id="text-0"><path xmlns="http://www.w3.org/2000/svg" d="M10.85 0h9.4v-1.35h-4v-32.3h11.8v6.35h1.35v-7.7h-27.65v7.7h1.35v-6.35h11.75v32.3h-4zM32.9 0h9.4v-1.35h-4.15v-15.6h22.35v15.6h-4.1v1.35h9.35v-1.35h-3.85v-32.3h3.85v-1.35h-9.35v1.35h4.1v15.35h-22.35v-15.35h4.15v-1.35h-9.4v1.35h3.85v32.3h-3.85zM69.25 0h25.05v-7.7h-1.35v6.35h-18.45v-15.6h17.15v-1.35h-17.15v-15.35h17.75v6.35h1.35v-7.7h-24.35v1.35h3.85v32.3h-3.85z" fill="#ffffff" fill-rule="nonzero" stroke="none" stroke-width="1" stroke-linecap="butt" stroke-linejoin="miter" stroke-miterlimit="10" stroke-dasharray="" stroke-dashoffset="0" font-family="none" font-weight="none" font-size="none" text-anchor="none" style="mix-blend-mode: normal" data-fill-palette-color="primary" opacity="1"></path><path xmlns="http://www.w3.org/2000/svg" d="M28.7 36.9v0-12.9h-9.3v1.35h7.9v10.7c-1.167 0.667-2.407 1.167-3.72 1.5-1.32 0.333-2.68 0.5-4.08 0.5v0c-2.267 0-4.39-0.433-6.37-1.3-1.987-0.867-3.713-2.05-5.18-3.55v0c-1.467-1.5-2.633-3.243-3.5-5.23-0.867-1.98-1.3-4.103-1.3-6.37v0c0-2.267 0.433-4.41 1.3-6.43 0.867-2.013 2.05-3.787 3.55-5.32v0c1.467-1.5 3.2-2.693 5.2-3.58 2-0.88 4.133-1.32 6.4-1.32v0c1.533 0 3.01 0.2 4.43 0.6 1.413 0.4 2.72 0.967 3.92 1.7v0l0.8-1.15c-1.367-0.8-2.807-1.417-4.32-1.85-1.52-0.433-3.13-0.65-4.83-0.65v0c-2.467 0-4.783 0.473-6.95 1.42-2.167 0.953-4.05 2.23-5.65 3.83v0c-1.633 1.633-2.917 3.54-3.85 5.72-0.933 2.187-1.4 4.513-1.4 6.98v0c0 2.467 0.467 4.783 1.4 6.95 0.933 2.167 2.217 4.05 3.85 5.65v0c1.6 1.633 3.483 2.917 5.65 3.85 2.167 0.933 4.483 1.4 6.95 1.4v0c1.7 0 3.31-0.227 4.83-0.68 1.513-0.447 2.937-1.053 4.27-1.82zM62.75 34.05v0c1.6-1.6 2.877-3.483 3.83-5.65 0.947-2.167 1.42-4.483 1.42-6.95v0c0-2.467-0.473-4.793-1.42-6.98-0.953-2.18-2.23-4.087-3.83-5.72v0c-1.633-1.6-3.54-2.877-5.72-3.83-2.187-0.947-4.513-1.42-6.98-1.42v0c-2.467 0-4.783 0.473-6.95 1.42-2.167 0.953-4.05 2.23-5.65 3.83v0c-1.633 1.633-2.917 3.54-3.85 5.72-0.933 2.187-1.4 4.513-1.4 6.98v0c0 2.467 0.467 4.783 1.4 6.95 0.933 2.167 2.217 4.05 3.85 5.65v0c1.6 1.633 3.483 2.917 5.65 3.85 2.167 0.933 4.483 1.4 6.95 1.4v0c2.467 0 4.793-0.467 6.98-1.4 2.18-0.933 4.087-2.217 5.72-3.85zM38.4 33.1v0c-1.467-1.5-2.633-3.243-3.5-5.23-0.867-1.98-1.3-4.103-1.3-6.37v0c0-2.3 0.433-4.46 1.3-6.48 0.867-2.013 2.05-3.77 3.55-5.27v0c1.467-1.5 3.2-2.693 5.2-3.58 2-0.88 4.133-1.32 6.4-1.32v0c2.267 0 4.4 0.44 6.4 1.32 2 0.887 3.75 2.08 5.25 3.58v0c1.5 1.533 2.693 3.3 3.58 5.3 0.88 2 1.32 4.133 1.32 6.4v0c0 2.267-0.44 4.4-1.32 6.4-0.887 2-2.08 3.75-3.58 5.25v0c-1.533 1.5-3.307 2.683-5.32 3.55-2.02 0.867-4.163 1.3-6.43 1.3v0c-2.267 0-4.39-0.433-6.37-1.3-1.987-0.867-3.713-2.05-5.18-3.55zM102.05 34.05v0c1.6-1.6 2.877-3.483 3.83-5.65 0.947-2.167 1.42-4.483 1.42-6.95v0c0-2.467-0.473-4.793-1.42-6.98-0.953-2.18-2.23-4.087-3.83-5.72v0c-1.633-1.6-3.54-2.877-5.72-3.83-2.187-0.947-4.513-1.42-6.98-1.42v0c-2.467 0-4.783 0.473-6.95 1.42-2.167 0.953-4.05 2.23-5.65 3.83v0c-1.633 1.633-2.917 3.54-3.85 5.72-0.933 2.187-1.4 4.513-1.4 6.98v0c0 2.467 0.467 4.783 1.4 6.95 0.933 2.167 2.217 4.05 3.85 5.65v0c1.6 1.633 3.483 2.917 5.65 3.85 2.167 0.933 4.483 1.4 6.95 1.4v0c2.467 0 4.793-0.467 6.98-1.4 2.18-0.933 4.087-2.217 5.72-3.85zM77.7 33.1v0c-1.467-1.5-2.633-3.243-3.5-5.23-0.867-1.98-1.3-4.103-1.3-6.37v0c0-2.3 0.433-4.46 1.3-6.48 0.867-2.013 2.05-3.77 3.55-5.27v0c1.467-1.5 3.2-2.693 5.2-3.58 2-0.88 4.133-1.32 6.4-1.32v0c2.267 0 4.4 0.44 6.4 1.32 2 0.887 3.75 2.08 5.25 3.58v0c1.5 1.533 2.693 3.3 3.58 5.3 0.88 2 1.32 4.133 1.32 6.4v0c0 2.267-0.44 4.4-1.32 6.4-0.887 2-2.08 3.75-3.58 5.25v0c-1.533 1.5-3.31 2.683-5.33 3.55-2.013 0.867-4.153 1.3-6.42 1.3v0c-2.267 0-4.39-0.433-6.37-1.3-1.987-0.867-3.713-2.05-5.18-3.55zM110.8 38.9h8.8c3.533 0 6.527-0.543 8.98-1.63 2.447-1.08 4.437-2.47 5.97-4.17v0c1.533-1.7 2.643-3.583 3.33-5.65 0.68-2.067 1.02-4.083 1.02-6.05v0c0-2.667-0.467-5.083-1.4-7.25-0.933-2.167-2.2-4.017-3.8-5.55v0c-1.6-1.5-3.467-2.657-5.6-3.47-2.133-0.82-4.4-1.23-6.8-1.23v0h-10.5v1.35h3.4v32.3h-3.4zM115.6 37.55v-32.3h5.85c2.167 0 4.227 0.377 6.18 1.13 1.947 0.747 3.67 1.82 5.17 3.22v0c1.467 1.4 2.627 3.1 3.48 5.1 0.847 2 1.27 4.233 1.27 6.7v0c0 1.933-0.333 3.857-1 5.77-0.667 1.92-1.7 3.63-3.1 5.13v0c-1.433 1.567-3.24 2.833-5.42 3.8-2.187 0.967-4.797 1.45-7.83 1.45v0z" fill="#ff6699" fill-rule="nonzero" stroke="none" stroke-width="1" stroke-linecap="butt" stroke-linejoin="miter" stroke-miterlimit="10" stroke-dasharray="" stroke-dashoffset="0" font-family="none" font-weight="none" font-size="none" text-anchor="none" style="mix-blend-mode: normal" data-fill-palette-color="secondary" opacity="1"></path><path xmlns="http://www.w3.org/2000/svg" d="M1.75 77.8h9.4v-1.35h-4.15v-14.35l4.75-4.5c2.467 3.167 4.933 6.317 7.4 9.45 2.467 3.133 4.917 6.267 7.35 9.4v0h-3.15v1.35h9.2v-1.35h-4.25c-2.6-3.333-5.19-6.633-7.77-9.9-2.587-3.267-5.18-6.55-7.78-9.85v0l13.1-12.55h4.35v-1.35h-9.15v1.35h2.9l-16.1 15.45-0.9 1c0-0.267 0.01-0.51 0.03-0.73 0.013-0.213 0.02-0.453 0.02-0.72v0-15h3.95v-1.35h-9.2v1.35h3.85v32.3h-3.85zM36.05 77.8h9.4v-1.35h-4.15v-32.3h4.15v-1.35h-9.4v1.35h3.85v32.3h-3.85zM48.95 77.8h8.8c3.533 0 6.527-0.543 8.98-1.63 2.447-1.08 4.437-2.47 5.97-4.17v0c1.533-1.7 2.643-3.583 3.33-5.65 0.68-2.067 1.02-4.083 1.02-6.05v0c0-2.667-0.467-5.083-1.4-7.25-0.933-2.167-2.2-4.017-3.8-5.55v0c-1.6-1.5-3.467-2.657-5.6-3.47-2.133-0.82-4.4-1.23-6.8-1.23v0h-10.5v1.35h3.4v32.3h-3.4zM53.75 76.45v-32.3h5.85c2.167 0 4.227 0.377 6.18 1.13 1.947 0.747 3.67 1.82 5.17 3.22v0c1.467 1.4 2.627 3.1 3.48 5.1 0.847 2 1.27 4.233 1.27 6.7v0c0 1.933-0.333 3.857-1 5.77-0.667 1.92-1.7 3.63-3.1 5.13v0c-1.433 1.567-3.24 2.833-5.42 3.8-2.187 0.967-4.797 1.45-7.83 1.45v0z" fill="#ffffff" fill-rule="nonzero" stroke="none" stroke-width="1" stroke-linecap="butt" stroke-linejoin="miter" stroke-miterlimit="10" stroke-dasharray="" stroke-dashoffset="0" font-family="none" font-weight="none" font-size="none" text-anchor="none" style="mix-blend-mode: normal" data-fill-palette-color="primary" opacity="1"></path></g></svg></g></svg></g></svg></g></svg></g><g transform="matrix(1,0,0,1,0,21.920298809223347)"><svg viewBox="0 0 80.79312586118253 67.3994023815533" height="67.3994023815533" width="80.79312586118253"><g><svg xmlns="http://www.w3.org/2000/svg" xmlns:xlink="http://www.w3.org/1999/xlink" version="1.1" x="0" y="0" viewBox="4 0 23.97443389892578 20" style="enable-background:new 0 0 30 20;" xml:space="preserve" height="67.3994023815533" width="80.79312586118253" class="icon-icon-0" data-fill-palette-color="accent" id="icon-0"><g fill="#ffffff" data-fill-palette-color="accent"><g fill="#ffffff" data-fill-palette-color="accent"><path d="M16.2 14.4c-0.3 0.4-0.8 0.6-1.3 0.6-0.5 0-0.9-0.2-1.2-0.5-0.4-0.4-1-0.4-1.4 0-0.4 0.4-0.4 1 0 1.4 0.7 0.7 1.6 1.1 2.6 1.1 1.1 0 2.1-0.5 2.8-1.3 0.4-0.4 0.3-1.1-0.1-1.4S16.6 14 16.2 14.4z" fill="#ffffff" data-fill-palette-color="accent"></path><path d="M14 12c0 0.6-0.4 1-1 1s-1-0.4-1-1 0.4-1 1-1S14 11.4 14 12" fill="#ffffff" data-fill-palette-color="accent"></path><path d="M18 12c0 0.6-0.4 1-1 1s-1-0.4-1-1 0.4-1 1-1S18 11.4 18 12" fill="#ffffff" data-fill-palette-color="accent"></path><path d="M8 8c0-3.5 2.2-6 5-6h4c2.8 0 5 2.5 5 6H8zM6 10h18V8c0-4.6-3-8-7-8h-4C9 0 6 3.4 6 8V10z" fill="#ffffff" data-fill-palette-color="accent"></path><path d="M23.5 8c-0.1 0-0.3 0-0.6 0-0.5 0-1.1 0-2 0-1.6 0-3.8 0-6 0-2.3 0-4.4 0-6 0C8.2 8 7.5 8 7 8 6.8 8 6.4 7.9 6.5 8 6.6 8.4 5.6 8 5 8.6 4.4 9.2 4 10 4 10.8c0 1 0.6 1.9 1.5 2.4 1.2 4 5.1 6.8 9.5 6.8s8.3-2.8 9.5-6.8c0.9-0.5 1.5-1.4 1.5-2.4 0-0.8-0.4-1.7-1.1-2.2C24.1 7.9 23.5 8 23.5 8zM7 10c0.5 0 1.1 0 2 0 1.6 0 3.7 0 6 0 2.2 0 4.4 0 6 0 0.8 0 1.5 0 2 0 0.2 0 0.4 0 0.5 0 0.3 0.2 0.5 0.5 0.5 0.8 0 0.3-0.2 0.6-0.6 0.7-0.3 0.1-0.6 0.4-0.7 0.7-0.8 3.3-4 5.7-7.7 5.7s-6.9-2.4-7.7-5.7c-0.1-0.3-0.3-0.6-0.7-0.7C6.2 11.4 6 11.1 6 10.8c0-0.3 0.2-0.6 0.5-0.8C6.6 10 6.8 10 7 10z" fill="#ffffff" data-fill-palette-color="accent"></path><path d="M23.6 8.8l4-3c0.4-0.3 0.5-1 0.2-1.4-0.3-0.4-1-0.5-1.4-0.2l-4 3c-0.4 0.3-0.5 1-0.2 1.4C22.5 9 23.2 9.1 23.6 8.8z" fill="#ffffff" data-fill-palette-color="accent"></path><path d="M12 6h6c0.6 0 1-0.4 1-1s-0.4-1-1-1h-6c-0.6 0-1 0.4-1 1S11.4 6 12 6z" fill="#ffffff" data-fill-palette-color="accent"></path></g></g></svg></g></svg></g></svg></g></svg></g></svg></g><defs></defs></svg><rect width="395.52" height="247.2" fill="none" stroke="none" visibility="hidden"></rect></g></svg></g></svg>